<?xml version="1.0" encoding="utf-8"?>
<!-- Generator: Adobe Illustrator 28.0.0, SVG Export Plug-In . SVG Version: 6.00 Build 0)  -->
<svg version="1.1" id="Layer_1" xmlns="http://www.w3.org/2000/svg" xmlns:xlink="http://www.w3.org/1999/xlink" x="0px" y="0px"
	 viewBox="0 0 49.4 50" style="enable-background:new 0 0 49.4 50;" xml:space="preserve">
<style type="text/css">
	.st0{fill:#FFFFFF;}
</style>
<g id="Vector">
	<path class="st0" d="M24,44.6c0.5,0.3,1,0.3,1.5,0L47,33.1c1.5-0.8,2.1-0.5,1.8,0.8l-0.5,2.5c-0.3,1.3-1.3,2.5-2.7,3.3l-18.1,9.7
		c-0.8,0.4-1.7,0.6-2.7,0.6c-1,0-1.9-0.2-2.7-0.6c-6-3.1-12.2-6.5-18.6-10c-0.9-0.5-1.7-1.6-2.2-3.1C1.2,36,1,35.8,0.7,35.7
		C0.2,35.4,0,35,0,34.4c0.1-6.3,0.1-12.6,0.1-18.9c0-0.4,0.2-0.6,0.6-0.8c0.1-0.1,0.2-0.1,0.3-0.2c0.1-0.1,0.1-0.2,0.2-0.3
		c0.5-1.6,1.5-2.8,3.2-3.8c4.7-2.7,11.1-6.1,19-10.2C23.7,0.1,24.1,0,24.6,0c0.4,0,0.9,0.1,1.2,0.2l3.5,1.6c0.7,0.3,0.7,0.6,0.1,1
		l-22,11.8c-0.7,0.4-1.1,0.9-1.1,1.6l0,18.5c0,0.1,0,0.3,0.1,0.4c0.1,0.1,0.2,0.2,0.4,0.3L24,44.6z"/>
	<path class="st0" d="M24,20.7c0.2,0.1,0.4,0.2,0.6,0.2c0.2,0,0.5,0,0.6-0.1L45.6,9.8c0.1,0,0.1-0.1,0.2-0.1c0.1,0,0.2,0,0.2,0
		c0.1,0,0.1,0.1,0.2,0.1c0,0.1,0.1,0.1,0.1,0.2c-0.2,1.9-1.3,3.5-3.5,4.8c-5.4,3.3-10.7,6.5-15.9,9.7c-1.5,0.9-2.9,0.8-4.1-0.3
		c-2-1.9-3.9-3.7-5.9-5.5c-1-0.9-1-1.9-0.9-2.9c0-0.6,0.3-0.7,0.9-0.3L24,20.7z"/>
	<path class="st0" d="M23.9,32.7c0.2,0.1,0.4,0.2,0.6,0.2c0.2,0,0.5,0,0.7-0.1l20.3-10.9c0.6-0.3,0.8-0.2,0.8,0.3
		c-0.1,1.7-1.2,3.1-3.2,4.4c-5.5,3.5-10.9,6.8-16.3,10.1c-1.4,0.9-2.7,0.8-3.9-0.3c-1.9-1.8-3.9-3.6-5.8-5.4
		c-1.3-1.2-1.3-2.1-1.2-3.5c0-0.4,0.2-0.4,0.6-0.2L23.9,32.7z"/>
</g>
</svg>
